<?xml version="1.0" standalone="no"?>
<!DOCTYPE svg PUBLIC "-//W3C//DTD SVG 20010904//EN"
 "http://www.w3.org/TR/2001/REC-SVG-20010904/DTD/svg10.dtd">
<svg version="1.0" xmlns="http://www.w3.org/2000/svg"
 width="700.000000pt" height="700.000000pt" viewBox="0 0 700.000000 700.000000"
 preserveAspectRatio="xMidYMid meet">
<metadata>
Created by potrace 1.11, written by Peter Selinger 2001-2013
</metadata>
<g transform="translate(0.000000,700.000000) scale(0.100000,-0.100000)"
fill="#000000" stroke="none">
<path d="M3298 6996 c-1 -2 -41 -6 -88 -10 -100 -7 -225 -22 -295 -36 -27 -5
-63 -12 -80 -15 -68 -11 -95 -17 -190 -41 -663 -167 -1253 -520 -1724 -1030
-95 -103 -101 -111 -186 -219 -220 -282 -407 -622 -528 -960 -78 -218 -148
-503 -172 -701 -4 -33 -9 -68 -11 -79 -19 -101 -26 -568 -11 -715 9 -81 25
-207 33 -255 3 -16 7 -43 9 -59 3 -15 7 -35 9 -45 3 -9 8 -31 11 -49 21 -128
113 -429 183 -602 374 -930 1188 -1693 2132 -1998 195 -63 265 -82 395 -108
157 -31 168 -33 240 -40 33 -3 62 -7 66 -9 29 -18 545 -26 714 -11 152 13 367
46 470 73 33 8 67 16 75 18 112 23 389 118 558 191 455 198 900 524 1215 889
33 39 63 72 67 75 12 10 168 218 217 291 327 487 530 1067 581 1654 14 161 6
608 -13 715 -2 14 -7 45 -10 70 -3 25 -7 56 -10 70 -3 14 -8 42 -11 63 -20
129 -86 378 -146 547 -391 1096 -1285 1917 -2413 2215 -180 48 -254 61 -555
101 -47 6 -526 15 -532 10z m497 -269 c17 -2 59 -7 95 -11 36 -4 88 -11 115
-16 28 -5 66 -12 85 -15 168 -28 415 -99 610 -177 368 -147 702 -357 989 -623
363 -336 621 -706 814 -1170 111 -267 191 -598 224 -925 9 -95 10 -470 1 -570
-55 -603 -271 -1169 -627 -1648 -52 -70 -99 -132 -105 -138 -6 -7 -38 -43 -71
-80 -385 -440 -919 -783 -1489 -954 -75 -23 -148 -43 -163 -46 -16 -3 -53 -11
-83 -19 -30 -8 -75 -17 -100 -20 -25 -3 -52 -8 -60 -10 -8 -3 -47 -9 -85 -14
-272 -39 -717 -34 -950 10 -27 5 -68 11 -90 15 -22 3 -58 10 -80 16 -22 5 -51
12 -65 15 -160 27 -492 148 -708 256 -174 88 -436 250 -508 315 -11 9 -37 30
-59 47 -100 74 -278 241 -390 366 -86 96 -101 114 -171 205 -67 88 -214 307
-214 319 0 4 -8 19 -19 33 -21 30 -103 191 -151 297 -67 145 -158 409 -181
522 -4 23 -15 68 -23 100 -12 50 -29 145 -51 293 -13 87 -20 240 -20 415 1
239 6 294 50 580 11 67 61 268 96 377 352 1129 1310 1984 2474 2208 61 11 126
23 145 26 19 2 49 6 65 9 17 3 71 7 120 11 50 3 92 8 93 9 5 5 450 -3 487 -8z"/>
<path d="M1667 5124 c-175 -39 -333 -112 -372 -171 -21 -32 -23 -106 -4 -129
30 -36 50 -33 159 22 178 90 284 116 454 110 127 -4 195 -24 269 -81 119 -91
157 -223 133 -465 -18 -182 -129 -367 -263 -437 -91 -48 -157 -65 -280 -69
-123 -4 -146 0 -139 25 3 9 8 43 11 76 4 33 8 71 10 85 6 39 44 263 49 285 18
85 41 180 56 235 48 166 36 192 -91 185 -93 -4 -107 -24 -152 -211 -33 -140
-70 -316 -81 -394 -3 -19 -7 -44 -10 -55 -2 -11 -7 -42 -10 -70 -4 -27 -9 -66
-11 -85 -29 -209 -10 -241 150 -258 80 -8 267 -7 335 2 140 18 277 74 383 155
76 57 103 86 160 168 l37 55 1 -33 c2 -69 10 -104 33 -154 61 -134 180 -197
359 -190 85 3 158 27 253 83 91 53 159 129 238 265 15 26 32 47 37 47 12 0 84
-109 97 -149 20 -57 18 -58 -55 -54 -82 5 -111 -8 -137 -61 -15 -32 -17 -44
-8 -75 13 -40 77 -90 122 -92 74 -4 119 4 165 27 28 15 72 28 99 31 65 7 116
26 171 63 25 17 45 26 45 21 0 -6 16 -29 36 -50 74 -83 208 -75 324 20 l34 29
28 -34 c71 -87 211 -96 292 -20 20 19 36 30 36 25 0 -31 -26 -64 -92 -116
-105 -84 -248 -232 -286 -296 -127 -215 -78 -408 106 -414 96 -3 166 38 230
133 75 113 139 287 184 499 l22 105 125 84 126 84 13 -52 c7 -29 24 -64 36
-77 44 -44 129 -31 154 23 6 14 22 63 35 108 55 188 160 379 201 365 16 -5 12
-82 -9 -233 -24 -166 -20 -237 15 -269 27 -25 109 -27 142 -4 32 23 37 43 43
174 2 55 7 120 10 145 40 312 43 343 34 376 -19 66 -101 86 -192 46 -83 -37
-208 -188 -257 -309 -7 -18 -17 -33 -22 -33 -5 0 -7 4 -4 8 3 5 8 31 11 58 4
27 18 94 31 148 26 104 25 145 -4 147 -102 9 -150 -16 -178 -92 -19 -54 -42
-163 -50 -232 -11 -104 -13 -112 -36 -129 -13 -9 -60 -44 -106 -78 l-83 -61 5
33 c3 18 19 120 35 226 17 106 31 206 31 222 0 46 -24 62 -89 59 -52 -3 -57
-1 -69 23 -16 34 -41 42 -108 33 -96 -12 -206 -82 -288 -185 -37 -46 -86 -166
-98 -240 -9 -62 -17 -81 -45 -110 -51 -55 -84 -71 -113 -57 -48 24 -49 98 -4
322 44 224 44 246 -5 263 -37 13 -101 5 -124 -16 -10 -9 -24 -30 -31 -47 -14
-32 -42 -148 -51 -205 -3 -19 -8 -42 -10 -50 -2 -8 -7 -46 -10 -85 -6 -62 -11
-74 -41 -106 -19 -20 -52 -45 -72 -57 l-37 -20 -2 49 c-2 61 -29 118 -103 218
-84 113 -87 131 -44 233 40 95 30 111 -63 110 -82 -2 -106 -22 -153 -130 -121
-277 -208 -394 -344 -460 -114 -56 -215 -56 -276 0 l-34 30 89 30 c97 33 153
64 198 112 124 132 90 345 -62 390 -103 30 -229 -5 -317 -88 -30 -29 -52 -46
-48 -37 15 34 13 268 -3 338 -46 206 -185 349 -403 416 -49 14 -101 20 -215
22 -129 3 -165 0 -258 -21z m3027 -801 c-49 -288 -79 -384 -128 -417 -36 -23
-63 -20 -93 10 -24 24 -25 30 -21 107 4 63 13 98 36 149 50 110 101 155 210
187 2 1 0 -16 -4 -36z m-1842 0 c25 -23 23 -82 -5 -124 -22 -33 -104 -82 -159
-95 l-28 -6 6 48 c16 141 119 238 186 177z m1703 -873 c-46 -171 -102 -286
-150 -308 -21 -10 -28 -9 -45 8 -11 11 -20 31 -20 45 0 76 76 203 176 294 31
28 58 51 59 49 2 -2 -7 -41 -20 -88z"/>
<path d="M4065 4875 c-5 -2 -21 -6 -35 -9 -14 -3 -41 -19 -60 -36 -31 -27 -35
-37 -37 -86 -1 -47 2 -59 25 -85 41 -45 137 -56 194 -22 89 52 100 176 20 216
-28 14 -89 27 -107 22z"/>
<path d="M5162 3590 c-88 -42 -152 -121 -223 -276 -63 -135 -130 -377 -154
-554 -3 -25 -8 -56 -10 -70 -16 -89 -22 -332 -11 -421 6 -45 4 -48 -39 -88
-138 -127 -306 -176 -418 -122 -46 23 -77 59 -55 65 71 21 173 60 212 82 151
85 219 261 152 398 -42 86 -118 127 -228 122 -82 -4 -101 -9 -172 -46 -39 -20
-63 -27 -75 -21 -9 4 -50 9 -91 10 -41 1 -95 4 -118 8 -50 6 -49 -7 -9 143 15
52 28 109 31 125 2 17 7 49 11 73 12 78 8 206 -9 264 -35 120 -121 189 -237
189 -78 0 -97 -4 -155 -33 -125 -62 -197 -211 -195 -408 0 -52 2 -104 5 -115
12 -59 31 -115 51 -156 28 -54 117 -155 146 -164 28 -9 24 -25 -27 -122 -123
-234 -251 -367 -352 -367 -83 0 -125 47 -158 176 -19 74 -28 556 -13 698 4 47
11 110 14 140 3 30 10 81 16 112 28 164 6 208 -106 209 -79 1 -124 -30 -145
-101 -11 -36 -37 -159 -46 -220 -9 -59 -83 -349 -110 -429 -115 -347 -243
-565 -343 -584 -32 -6 -73 17 -94 52 -19 33 -46 113 -52 154 -3 18 -9 59 -14
92 -9 56 -7 464 3 530 2 17 7 57 10 90 10 105 17 159 25 195 14 66 7 167 -13
189 -21 23 -61 38 -93 35 -13 -1 -34 -2 -47 -3 -36 -2 -84 -47 -96 -89 -11
-39 -34 -195 -44 -297 -56 -565 10 -990 175 -1139 57 -51 115 -70 196 -64 181
14 358 208 484 530 19 49 37 88 40 88 3 0 6 -21 7 -47 7 -139 41 -296 90 -403
48 -108 139 -170 249 -170 123 0 233 58 368 195 124 126 173 196 298 426 l15
26 68 -11 c38 -6 86 -11 107 -11 42 0 44 -5 21 -66 -19 -52 -27 -223 -12 -277
38 -144 138 -240 285 -272 78 -18 209 -10 286 16 71 24 156 72 222 124 l38 30
15 -31 c24 -49 90 -107 146 -128 73 -28 204 -25 268 7 174 86 279 310 248 530
-23 163 -113 276 -248 312 l-43 11 21 27 c121 157 189 304 215 465 37 233 -30
384 -175 392 -38 2 -64 -4 -108 -25z m94 -186 c38 -57 15 -231 -52 -392 -35
-87 -179 -380 -193 -395 -4 -4 -5 16 -1 45 4 29 11 84 14 121 4 37 9 78 12 90
2 12 7 38 10 57 4 32 8 51 18 105 35 179 90 338 131 379 23 23 42 20 61 -10z
m-1556 -154 c40 -22 56 -144 33 -260 -17 -87 -55 -220 -63 -220 -9 0 -53 50
-71 80 -40 67 -54 222 -28 309 23 79 79 118 129 91z m725 -730 c22 -24 22 -78
1 -119 -20 -38 -96 -95 -149 -111 -22 -6 -46 -14 -55 -17 -24 -10 -8 109 23
174 44 89 133 125 180 73z m788 -18 c22 -19 46 -63 53 -95 16 -72 0 -218 -30
-276 -54 -102 -173 -105 -221 -5 -29 59 -28 232 2 296 44 97 136 134 196 80z"/>
</g>
</svg>
